<?xml version="1.0" standalone="no"?>
<svg viewBox="0 0 200 200" xmlns="http://www.w3.org/2000/svg">
  <path fill="#0F62FE" d="M29.1,-57.3C35.8,-46.6,37.9,-34.8,44.6,-25.1C51.2,-15.4,62.5,-7.7,62.1,-0.2C61.7,7.2,49.6,14.4,43,24.4C36.5,34.4,35.6,47.3,29.4,53.8C23.1,60.3,11.6,60.6,-1.4,63C-14.3,65.4,-28.7,69.9,-33.1,62.4C-37.6,54.8,-32.2,35.1,-31.7,22.7C-31.2,10.3,-35.6,5.1,-42.6,-4.1C-49.7,-13.2,-59.3,-26.5,-56.6,-33.4C-53.9,-40.3,-38.9,-40.9,-27.4,-48.8C-16,-56.8,-8,-72.1,1.6,-74.9C11.2,-77.7,22.5,-68.1,29.1,-57.3Z" transform="translate(100 100)" />
</svg>
